<svg id="Logo" xmlns="http://www.w3.org/2000/svg" width="220" height="57.884" viewBox="0 0 220 57.884">
  <g id="g12" transform="translate(0 0)">
    <g id="Gruppe_1" data-name="Gruppe 1">
      <g id="Gruppe_3" data-name="Gruppe 3" transform="translate(139.988 2.442)">
        <path id="path22" d="M-7.266-3.155h-1.4A2.748,2.748,0,0,0-9.679-5.108a3.288,3.288,0,0,0-2.038-.644,3.16,3.16,0,0,0-2.422,1.016,4.361,4.361,0,0,0-.943,3.07V0a4.833,4.833,0,0,0,.858,3.059,2.958,2.958,0,0,0,2.473,1.089A3.391,3.391,0,0,0-9.5,3.4a2.422,2.422,0,0,0,.894-1.943V.253h-3.25V-1.017h4.622V1.459a3.927,3.927,0,0,1-.134.993,4.042,4.042,0,0,1-.465,1.057,3.853,3.853,0,0,1-.832.965,3.994,3.994,0,0,1-1.295.683,5.529,5.529,0,0,1-1.772.265,4.392,4.392,0,0,1-3.543-1.43A5.96,5.96,0,0,1-16.5,0V-1.669a5.584,5.584,0,0,1,1.307-3.942,4.544,4.544,0,0,1,3.5-1.41,4.381,4.381,0,0,1,3.145,1.1A4.058,4.058,0,0,1-7.266-3.155" transform="translate(17.312 7.027)" fill="#124b90"/>
        <path id="path26" d="M-1.105-3.311H3.674v-.16a3.188,3.188,0,0,0-.3-1.416,2.164,2.164,0,0,0-.842-.936A2.383,2.383,0,0,0,1.282-6.15a2.215,2.215,0,0,0-1.726.728,2.791,2.791,0,0,0-.661,1.95ZM1.4,2.115A3.788,3.788,0,0,1-1.472,1.034,4.044,4.044,0,0,1-2.507-1.893V-3.374a3.988,3.988,0,0,1,1.062-2.9A3.647,3.647,0,0,1,1.289-7.371,3.645,3.645,0,0,1,4.021-6.277a3.991,3.991,0,0,1,1.065,2.9v1.125H-1.105v.467A2.814,2.814,0,0,0-.446.137,2.309,2.309,0,0,0,1.4.892,2.669,2.669,0,0,0,2.764.566a1.491,1.491,0,0,0,.7-.784H4.946a2.077,2.077,0,0,1-.311.771,3.385,3.385,0,0,1-.661.748,3.18,3.18,0,0,1-1.089.587A4.691,4.691,0,0,1,1.4,2.113" transform="translate(14.992 10.238)" fill="#124b90"/>
        <path id="path30" d="M0-7.6v-9.188H1.389v1.422h.073a2.468,2.468,0,0,1,.858-1.085,2.876,2.876,0,0,1,1.756-.465c.114,0,.3.01.547.031v1.271a5.381,5.381,0,0,0-.718-.032,2.915,2.915,0,0,0-1.392.309,2.038,2.038,0,0,0-.849.8A2.281,2.281,0,0,0,1.39-13.4v5.8Z" transform="translate(22.977 19.801)" fill="#124b90"/>
        <path id="path34" d="M0-7.615V-16.8H1.389v1.455h.089a2.357,2.357,0,0,1,2.516-1.6,3.327,3.327,0,0,1,.959.132,2.578,2.578,0,0,1,.759.365,2.516,2.516,0,0,1,.552.544,1.976,1.976,0,0,1,.326.68h.075A2.767,2.767,0,0,1,7.7-16.471a3.156,3.156,0,0,1,1.8-.478,3.255,3.255,0,0,1,2.279.745,2.714,2.714,0,0,1,.817,2.117v6.471H11.2v-6.141a2.021,2.021,0,0,0-.519-1.447,1.965,1.965,0,0,0-1.5-.547,2.1,2.1,0,0,0-1.56.631A2.162,2.162,0,0,0,7-13.539v5.925H5.611v-6.053a2.066,2.066,0,0,0-.564-1.5,2.036,2.036,0,0,0-1.528-.579,2.03,2.03,0,0,0-1.527.623,2.16,2.16,0,0,0-.605,1.572v5.94Z" transform="translate(29.777 19.816)" fill="#124b90"/>
        <path id="path38" d="M-2.676-6.767A2.454,2.454,0,0,0-.99-7.37a1.928,1.928,0,0,0,.682-1.5v-1.07H-2.774a2.013,2.013,0,0,0-1.407.414,1.434,1.434,0,0,0-.449,1.1A1.439,1.439,0,0,0-4.06-7.2a2.241,2.241,0,0,0,1.382.427m-.352,1.2a3.559,3.559,0,0,1-1.234-.21,2.847,2.847,0,0,1-.959-.566,2.618,2.618,0,0,1-.622-.888A2.9,2.9,0,0,1-6.074-8.4a2.611,2.611,0,0,1,.367-1.4,2.483,2.483,0,0,1,1.115-.937,4.278,4.278,0,0,1,1.784-.341h2.5v-.944a1.648,1.648,0,0,0-.543-1.358,2.362,2.362,0,0,0-1.534-.443q-1.616,0-1.977,1.1H-5.715a2.246,2.246,0,0,1,1.008-1.749,4.286,4.286,0,0,1,2.389-.59,3.932,3.932,0,0,1,2.467.736,2.7,2.7,0,0,1,.959,2.287v6.31H-.26V-6.967H-.308A3,3,0,0,1-3.03-5.577" transform="translate(51.091 17.932)" fill="#124b90"/>
        <path id="path42" d="M0-7.614V-16.8H1.389v1.693h.089a2.642,2.642,0,0,1,2.838-1.838,3.348,3.348,0,0,1,2.325.776A2.869,2.869,0,0,1,7.5-13.925v6.311H6.1v-5.877a2.341,2.341,0,0,0-.55-1.68,2.049,2.049,0,0,0-1.556-.579,2.33,2.33,0,0,0-1.941.839,3.348,3.348,0,0,0-.665,2.143v5.153Z" transform="translate(55.406 19.816)" fill="#124b90"/>
        <path id="path46" d="M-5.677-8.707v1.271h-7.211V-19.383h7.211v1.269h-5.784v3.932h5.456v1.271h-5.456v4.2Z" transform="translate(14.179 36.833)" fill="#124b90"/>
        <path id="path50" d="M0-4.519v-1.6A3.957,3.957,0,0,1,1.024-8.987a3.689,3.689,0,0,1,2.8-1.071,3.691,3.691,0,0,1,2.54.821A2.594,2.594,0,0,1,7.32-7.363H5.927a1.949,1.949,0,0,0-.159-.455,2.239,2.239,0,0,0-.331-.472A1.511,1.511,0,0,0,4.8-8.682a2.857,2.857,0,0,0-.966-.152,2.25,2.25,0,0,0-1.822.743,3.013,3.013,0,0,0-.63,2.014V-4.5a3.187,3.187,0,0,0,.288,1.4,2.059,2.059,0,0,0,.851.917,2.608,2.608,0,0,0,1.314.318q1.822,0,2.155-1.287h1.4a2.474,2.474,0,0,1-.959,1.808,3.928,3.928,0,0,1-2.609.772,3.682,3.682,0,0,1-2.8-1.073A3.987,3.987,0,0,1,0-4.519" transform="translate(10.927 30.117)" fill="#124b90"/>
        <path id="path54" d="M-1.093-3.4v1.149A3.7,3.7,0,0,0-.787-.68,2.343,2.343,0,0,0,.1.341,2.557,2.557,0,0,0,1.48.7a2.318,2.318,0,0,0,1.871-.8,3.226,3.226,0,0,0,.671-2.154V-3.4a3.161,3.161,0,0,0-.69-2.142,2.318,2.318,0,0,0-1.853-.8A2.363,2.363,0,0,0-.39-5.532a3.121,3.121,0,0,0-.7,2.134M1.48-7.561a3.924,3.924,0,0,1,2.85,1.07,3.9,3.9,0,0,1,1.1,2.942V-2.1A3.9,3.9,0,0,1,4.322.851,3.916,3.916,0,0,1,1.48,1.924,3.936,3.936,0,0,1-1.387.86,3.937,3.937,0,0,1-2.48-2.1V-3.55A3.9,3.9,0,0,1-1.362-6.459a3.884,3.884,0,0,1,2.842-1.1" transform="translate(22.952 27.621)" fill="#124b90"/>
        <path id="path58" d="M0-7.614V-16.8H1.389v1.693h.089a2.643,2.643,0,0,1,2.838-1.838,3.348,3.348,0,0,1,2.325.776A2.869,2.869,0,0,1,7.5-13.925v6.311H6.1v-5.877a2.336,2.336,0,0,0-.55-1.68,2.048,2.048,0,0,0-1.556-.579,2.328,2.328,0,0,0-1.94.839,3.344,3.344,0,0,0-.665,2.142v5.154Z" transform="translate(31.184 37.009)" fill="#124b90"/>
        <path id="path62" d="M-1.093-3.4v1.149A3.712,3.712,0,0,0-.788-.68,2.345,2.345,0,0,0,.1.341,2.557,2.557,0,0,0,1.48.7a2.318,2.318,0,0,0,1.871-.8,3.223,3.223,0,0,0,.671-2.154V-3.4A3.157,3.157,0,0,0,3.33-5.539a2.318,2.318,0,0,0-1.852-.8A2.362,2.362,0,0,0-.39-5.532a3.121,3.121,0,0,0-.7,2.134M1.48-7.561a3.921,3.921,0,0,1,2.85,1.07,3.9,3.9,0,0,1,1.1,2.942V-2.1A3.9,3.9,0,0,1,4.322.851,3.916,3.916,0,0,1,1.48,1.924,3.936,3.936,0,0,1-1.387.86,3.934,3.934,0,0,1-2.48-2.1V-3.55A3.9,3.9,0,0,1-1.362-6.459a3.883,3.883,0,0,1,2.842-1.1" transform="translate(43.872 27.621)" fill="#124b90"/>
        <path id="path66" d="M0-7.615V-16.8H1.389v1.455h.089a2.356,2.356,0,0,1,2.516-1.6,3.3,3.3,0,0,1,.959.132,2.583,2.583,0,0,1,.76.365,2.51,2.51,0,0,1,.551.544,1.946,1.946,0,0,1,.327.68h.074A2.773,2.773,0,0,1,7.7-16.471a3.155,3.155,0,0,1,1.8-.478,3.254,3.254,0,0,1,2.279.745,2.714,2.714,0,0,1,.817,2.117v6.471H11.2v-6.141a2.021,2.021,0,0,0-.52-1.448,1.965,1.965,0,0,0-1.5-.546,2.1,2.1,0,0,0-1.56.631A2.165,2.165,0,0,0,7-13.539v5.925H5.61v-6.054a2.065,2.065,0,0,0-.563-1.5,2.039,2.039,0,0,0-1.529-.579,2.039,2.039,0,0,0-1.527.622,2.165,2.165,0,0,0-.605,1.572v5.942Z" transform="translate(52.114 37.009)" fill="#124b90"/>
        <path id="path68" d="M747.955-422.805h1.4v9.188h-1.4Zm-.361-2.862a.986.986,0,0,1,.308-.743,1.036,1.036,0,0,1,.746-.294,1.029,1.029,0,0,1,.756.294,1,1,0,0,1,.3.743,1.058,1.058,0,0,1-.135.539.885.885,0,0,1-.384.357,1.161,1.161,0,0,1-.539.125,1.043,1.043,0,0,1-.746-.289.964.964,0,0,1-.308-.733" transform="translate(-679.777 443.013)" fill="#124b90"/>
        <path id="path72" d="M0-4.519v-1.6A3.957,3.957,0,0,1,1.024-8.987a3.69,3.69,0,0,1,2.8-1.071,3.692,3.692,0,0,1,2.54.821A2.6,2.6,0,0,1,7.32-7.363H5.928a1.984,1.984,0,0,0-.159-.455,2.239,2.239,0,0,0-.331-.472A1.514,1.514,0,0,0,4.8-8.682a2.854,2.854,0,0,0-.966-.152,2.253,2.253,0,0,0-1.822.743,3.016,3.016,0,0,0-.629,2.014V-4.5a3.187,3.187,0,0,0,.288,1.4,2.059,2.059,0,0,0,.851.917,2.61,2.61,0,0,0,1.313.318q1.822,0,2.155-1.287h1.4a2.474,2.474,0,0,1-.959,1.808,3.93,3.93,0,0,1-2.609.772,3.683,3.683,0,0,1-2.8-1.073A3.987,3.987,0,0,1,0-4.519" transform="translate(72.621 30.117)" fill="#124b90"/>
        <path id="path76" d="M-4.044-9.744H-5.459V-20.437H-9.181v-1.254H-.328v1.254H-4.044Z" transform="translate(9.181 56.339)" fill="#124b90"/>
        <path id="path80" d="M-1.105-3.311H3.674v-.16a3.189,3.189,0,0,0-.3-1.416,2.162,2.162,0,0,0-.841-.936A2.378,2.378,0,0,0,1.282-6.15a2.213,2.213,0,0,0-1.726.727,2.789,2.789,0,0,0-.661,1.951Zm2.5,5.427A3.788,3.788,0,0,1-1.473,1.034,4.045,4.045,0,0,1-2.508-1.893V-3.374a3.986,3.986,0,0,1,1.063-2.9A3.646,3.646,0,0,1,1.289-7.371,3.646,3.646,0,0,1,4.021-6.277a3.993,3.993,0,0,1,1.065,2.9v1.125H-1.105v.467A2.81,2.81,0,0,0-.446.137,2.307,2.307,0,0,0,1.395.892,2.668,2.668,0,0,0,2.763.566a1.489,1.489,0,0,0,.706-.784H4.946a2.089,2.089,0,0,1-.311.771,3.385,3.385,0,0,1-.661.748,3.172,3.172,0,0,1-1.09.587,4.684,4.684,0,0,1-1.489.226" transform="translate(12.953 44.631)" fill="#124b90"/>
        <path id="path84" d="M-2.675-6.767a2.459,2.459,0,0,0,1.687-.6,1.933,1.933,0,0,0,.682-1.5V-9.942H-2.773a2.016,2.016,0,0,0-1.408.413,1.434,1.434,0,0,0-.449,1.1A1.441,1.441,0,0,0-4.06-7.2a2.243,2.243,0,0,0,1.382.426m-.352,1.2a3.557,3.557,0,0,1-1.233-.21,2.85,2.85,0,0,1-.959-.566,2.626,2.626,0,0,1-.622-.889A2.887,2.887,0,0,1-6.073-8.4a2.611,2.611,0,0,1,.367-1.4,2.471,2.471,0,0,1,1.115-.936,4.25,4.25,0,0,1,1.784-.342h2.5v-.944A1.646,1.646,0,0,0-.85-13.387a2.364,2.364,0,0,0-1.534-.442q-1.616,0-1.977,1.1H-5.715a2.241,2.241,0,0,1,1.008-1.749,4.278,4.278,0,0,1,2.389-.591,3.928,3.928,0,0,1,2.466.736,2.7,2.7,0,0,1,.959,2.287v6.31H-.259V-6.968H-.306A3,3,0,0,1-3.03-5.577" transform="translate(26.292 52.324)" fill="#124b90"/>
        <path id="path88" d="M0-7.615V-16.8H1.389v1.456h.089a2.357,2.357,0,0,1,2.516-1.6,3.326,3.326,0,0,1,.959.133,2.578,2.578,0,0,1,.759.365,2.532,2.532,0,0,1,.552.544,1.969,1.969,0,0,1,.325.68h.076A2.773,2.773,0,0,1,7.7-16.471a3.162,3.162,0,0,1,1.8-.479,3.255,3.255,0,0,1,2.279.746,2.714,2.714,0,0,1,.817,2.117v6.471H11.2v-6.141a2.021,2.021,0,0,0-.519-1.448,1.968,1.968,0,0,0-1.5-.546,2.1,2.1,0,0,0-1.56.63A2.164,2.164,0,0,0,7-13.54v5.926H5.611v-6.054a2.066,2.066,0,0,0-.564-1.5A2.036,2.036,0,0,0,3.52-15.75a2.036,2.036,0,0,0-1.527.622,2.162,2.162,0,0,0-.605,1.572v5.942Z" transform="translate(30.592 54.209)" fill="#124b90"/>
      </g>
      <path id="path92" d="M-17.061-15.567A8.97,8.97,0,0,1-19.208-12.3a9.448,9.448,0,0,1-3.39,2.062,13.119,13.119,0,0,1-4.485.721,12.9,12.9,0,0,1-4.863-.869,10.074,10.074,0,0,1-3.66-2.494,11.025,11.025,0,0,1-2.316-3.965,16.047,16.047,0,0,1-.807-5.267,15.818,15.818,0,0,1,.807-5.211,11.12,11.12,0,0,1,2.306-3.952,10.093,10.093,0,0,1,3.628-2.5,12.434,12.434,0,0,1,4.788-.879,13.008,13.008,0,0,1,3.99.587A10.517,10.517,0,0,1-19.979-32.4a8.979,8.979,0,0,1,2.289,2.6,9.247,9.247,0,0,1,1.16,3.38h-5.049a5.2,5.2,0,0,0-2.028-2.825,6.184,6.184,0,0,0-3.592-1,6.128,6.128,0,0,0-2.643.554,5.468,5.468,0,0,0-1.995,1.6,7.459,7.459,0,0,0-1.254,2.543,12.128,12.128,0,0,0-.438,3.388,12.111,12.111,0,0,0,.454,3.447,7.658,7.658,0,0,0,1.305,2.593,5.667,5.667,0,0,0,2.061,1.632A6.375,6.375,0,0,0-27-13.929a7.2,7.2,0,0,0,2.289-.346,5.4,5.4,0,0,0,1.794-.975,4.635,4.635,0,0,0,1.191-1.526,4.809,4.809,0,0,0,.472-1.971l.015-.431h-5.267v-3.761h10.2v3.048a11.833,11.833,0,0,1-.747,4.325" transform="translate(67.924 51.03)" fill="#124b90"/>
      <path id="path96" d="M-12.667-19.5H-28.756V-43.4h16.089v4.274H-23.672v5.583h10.383v3.959H-23.672v5.815h11Z" transform="translate(84.829 60.397)" fill="#124b90"/>
      <path id="path100" d="M-5.738-19.5V-39.135h-7.289v-4.274H6.633v4.274H-.656V-19.5Z" transform="translate(88.777 60.397)" fill="#124b90"/>
      <path id="path104" d="M-75.019-22.805c-.3-.036-.61-.058-.914-.094v1.847C-57.736-18.06-50.9-12.361-58.5-4.975c-6.2,6.025-24.043,9-40.763,9.564-1.252.031-2.589-.008-2.589-.008-24.295-.64-41.548-5.916-50.579-15.263-12.64-13.075-.1-31.6,34.609-36.876a171.183,171.183,0,0,1,41.036-1.118,170.755,170.755,0,0,0-51.274-.189c-35.9,5.458-50.924,24.329-37.241,38.484C-154.56.733-130.263,7.106-101.854,7.17h0c.173,0,.342.007.516.007.72,0,3.452-.027,4.107-.043C-78.129,6.661-51.7,1.6-44.6-5.293c9.046-8.789-7.193-14.735-30.414-17.514" transform="translate(170.304 50.708)" fill="#87b3e0" fill-rule="evenodd"/>
    </g>
  </g>
</svg>
