<svg xmlns="http://www.w3.org/2000/svg" viewBox="0 0 178.25 178.25"><defs><style>.cls-1{fill:#00abc2;}.cls-2{fill:#fff;}</style></defs><g id="Layer_2" data-name="Layer 2"><g id="Layer_1-2" data-name="Layer 1"><path class="cls-1" d="M89.13.5a88.63,88.63,0,1,0,88.62,88.63A88.63,88.63,0,0,0,89.13.5"/><path class="cls-2" d="M130.28,97.61c4.39.46,10.13,3.58,14.34.31-6-1.08-11.92-4.17-17.45-6.24,5.67-2.34,13.17,2.41,18.14-2.55-6.11-.13-12.42-2.25-18.21-3.44,5.24-3.19,13.39.33,17.52-5.35-6.06.83-12.62-.28-18.53-.54,4.68-4,13.28-1.78,16.47-8-5.85,1.78-12.51,1.7-18.38,2.37,4-4.66,12.83-3.83,15-10.51-5.51,2.66-12.09,3.64-17.79,5.21,3.22-5.23,12.08-5.79,13.18-12.73-5,3.5-11.37,5.49-16.75,7.93,2.36-5.67,11-7.61,11-14.63-4.41,4.23-10.37,7.19-15.3,10.45,1.44-6,9.7-9.24,8.6-16.18-3.69,4.88-9.12,8.73-13.48,12.72.49-6.12,8.13-10.64,6-17.32-2.88,5.38-7.64,10-11.32,14.66-.47-6.12,6.36-11.78,3.18-18-2,5.78-6,11.12-8.89,16.26-1.42-6,4.44-12.63.31-18.32-1.07,6-4.16,11.92-6.23,17.45-2.34-5.67,2.41-13.17-2.55-18.14-.13,6.11-2.25,12.42-3.44,18.21-3.19-5.24.33-13.39-5.35-17.52.83,6.06-.28,12.63-.54,18.53-4-4.68-1.78-13.28-8-16.47,1.77,5.85,1.7,12.51,2.37,18.38-4.66-4-3.83-12.83-10.51-15,2.66,5.5,3.64,12.09,5.21,17.78C63.6,53.63,63,44.77,56.1,43.67c3.49,5,5.49,11.37,7.93,16.75-5.67-2.36-7.61-11-14.63-11,4.23,4.41,7.19,10.37,10.45,15.3-6-1.44-9.24-9.69-16.18-8.6,4.87,3.69,8.73,9.12,12.72,13.48-6.12-.49-10.64-8.13-17.32-6,5.38,2.88,10,7.64,14.66,11.32-6.12.47-11.78-6.36-18-3.18,5.78,2,11.12,6,16.26,8.9-6,1.42-12.63-4.45-18.32-.32,6,1.07,11.92,4.16,17.45,6.24-5.67,2.33-13.17-2.42-18.14,2.55,6.11.12,12.42,2.25,18.21,3.43-5.24,3.19-13.39-.33-17.52,5.36,6.06-.84,12.62.27,18.53.54-4.68,4-13.28,1.77-16.47,8,5.85-1.77,12.51-1.7,18.38-2.37-4,4.66-12.83,3.83-15,10.51,5.5-2.66,12.09-3.63,17.78-5.21-3.22,5.23-12.08,5.79-13.18,12.73,5-3.49,11.37-5.48,16.75-7.93-2.36,5.67-11,7.61-11,14.63,4.41-4.23,10.37-7.19,15.3-10.45-1.44,6-9.7,9.24-8.6,16.18,3.69-4.87,9.12-8.73,13.48-12.72-.49,6.12-8.13,10.64-6,17.33,2.88-5.39,7.64-10.05,11.32-14.67.47,6.12-6.36,11.78-3.18,18,2-5.77,6-11.12,8.89-16.26,1.42,6-4.44,12.63-.31,18.32,1.07-6,4.16-11.92,6.23-17.45,2.34,5.68-2.41,13.17,2.56,18.14.12-6.11,2.24-12.42,3.43-18.21,3.19,5.24-.33,13.39,5.35,17.52-.83-6.06.28-12.62.55-18.52,4,4.67,1.77,13.27,8,16.46-1.77-5.85-1.7-12.51-2.37-18.38,4.66,4,3.83,12.83,10.51,15-2.66-5.51-3.64-12.09-5.21-17.79,5.23,3.22,5.79,12.08,12.73,13.18-3.49-5-5.49-11.37-7.93-16.75,5.67,2.36,7.61,11,14.63,11-4.23-4.4-7.19-10.37-10.45-15.3,6,1.44,9.24,9.7,16.18,8.6-4.87-3.69-8.73-9.12-12.72-13.48,6.12.49,10.64,8.13,17.33,6-5.39-2.88-10.05-7.64-14.67-11.32,6.12-.47,11.78,6.36,18,3.18-5.77-2-11.12-6-16.26-8.89a7.56,7.56,0,0,1,4,0m-19.93,4.58-9.28-4-3.74,9.39L93.6,98.2l-9.28,4,4-9.27-9.38-3.74,9.38-3.74-4-9.28,9.28,4,3.73-9.39,3.74,9.38,9.28-4-4,9.28,9.38,3.74-9.38,3.74ZM96.65,59.56c-16.09,0-30,12.53-30,29.41s14.14,29.4,30,29.4a30.64,30.64,0,0,0,20.66-8c-5.43,8.77-19,15.07-26.75,15.07H85a65.54,65.54,0,0,1-7.81-1.53,37.17,37.17,0,0,1-14.57-8.46c-6.57-6-11.31-17.13-11.31-24.12V86.55c0-3.16,1.82-9.37,2.88-11.9A33.48,33.48,0,0,1,60.94,64.2C69.38,55.46,79,52.46,87.79,52.46a36.13,36.13,0,0,1,20.52,6.28c3,2,7.09,5.7,9.07,8.94a30.05,30.05,0,0,0-20.73-8.12"/><path class="cls-2" d="M10.65,94.23a5.45,5.45,0,0,1,3.73-9.37,5.41,5.41,0,0,1,5.55,5.35,5.41,5.41,0,0,1-5.37,5.55,5.28,5.28,0,0,1-3.91-1.53M12,87.93a3.39,3.39,0,0,0,2.56,5.76,3.38,3.38,0,0,0,2.46-1,3.3,3.3,0,0,0,.94-2.43,3.25,3.25,0,0,0-1-2.39,3.34,3.34,0,0,0-2.49-.94,3.35,3.35,0,0,0-2.45,1"/><path class="cls-2" d="M10.54,103.9l3.27-2.67-.25-1.55-3.6.57-.32-2L20,96.56l.66,4.14a3.41,3.41,0,0,1-.62,2.61,3.35,3.35,0,0,1-2.27,1.39,3.18,3.18,0,0,1-1.87-.26,3.46,3.46,0,0,1-1.47-1.26l-3.55,2.92Zm7.88-5-3.07.49.34,2.11a1.31,1.31,0,0,0,.61.92,1.54,1.54,0,0,0,1.15.24,1.57,1.57,0,0,0,1-.59,1.34,1.34,0,0,0,.29-1.06Z"/><path class="cls-2" d="M19.76,116.29l-.77.23a4.83,4.83,0,0,1-3.91-.29,5.11,5.11,0,0,1-2.44-3.14,5.51,5.51,0,0,1,.32-4.32,5.26,5.26,0,0,1,3.22-2.67A5.43,5.43,0,0,1,23,109.74a5.54,5.54,0,0,1,.16,2.76,5,5,0,0,1-1.14,2.34l-1.5-1.39a2.78,2.78,0,0,0,.67-1.4,3.43,3.43,0,0,0-.12-1.73,3.3,3.3,0,0,0-1.66-2.06,3.35,3.35,0,0,0-2.66-.19,3.25,3.25,0,0,0-2,1.66,3.51,3.51,0,0,0-.16,2.77,3.41,3.41,0,0,0,1.1,1.74,2.62,2.62,0,0,0,1.71.6l-.94-3,1.75-.54Z"/><path class="cls-2" d="M18.18,126.06l1.42-1.42-1.86-3.89-2,.25-1-2,11.06-1.2L27,120.09,19.08,128Zm1.6-5.53,1.27,2.66L24.27,120Z"/><polygon class="cls-2" points="32.21 128.93 33.35 130.66 24.58 136.43 23.72 135.12 26.6 127.83 21.24 131.36 20.1 129.63 28.87 123.86 29.73 125.17 26.87 132.45 32.21 128.93"/><rect class="cls-2" x="25.71" y="134.91" width="10.5" height="2.07" transform="translate(-78.45 49.52) rotate(-38.86)"/><polygon class="cls-2" points="32.04 142.19 35.11 145.42 33.67 146.79 28.8 141.66 30 140.52 37.98 138.95 35.05 135.87 36.48 134.5 41.23 139.49 40.05 140.61 32.04 142.19"/><path class="cls-2" d="M40.65,152.73l.68-1.89L38,148.1l-1.69,1.07-1.73-1.42L44.09,142l2,1.62-3.8,10.47Zm-.9-5.69L42,148.91l1.55-4.27Z"/><polygon class="cls-2" points="54.68 149.53 53.6 151.19 51.23 149.65 46.59 156.8 44.85 155.68 49.49 148.53 47.12 146.99 48.2 145.33 54.68 149.53"/><rect class="cls-2" x="48.64" y="153.94" width="10.5" height="2.07" transform="translate(-108.14 129.16) rotate(-61.78)"/><path class="cls-2" d="M63.36,163.45a5.46,5.46,0,1,1,2.9-7.19,5.53,5.53,0,0,1-2.9,7.19m-5.3-3.66a3.51,3.51,0,0,0,4.48,1.81,3.34,3.34,0,0,0,1.82-1.93,3.37,3.37,0,0,0,0-2.66,3.49,3.49,0,0,0-4.48-1.8,3.62,3.62,0,0,0-1.85,4.58"/><polygon class="cls-2" points="75.02 157.14 77.04 157.62 74.62 167.84 73.08 167.47 70.18 160.19 68.71 166.44 66.69 165.96 69.11 155.74 70.64 156.1 73.55 163.37 75.02 157.14"/><path class="cls-2" d="M90.49,167.75a5.47,5.47,0,1,1-3.57-9.45,5.48,5.48,0,0,1,3.57,9.45m-6.24-1.6a3.46,3.46,0,1,0,2.6-5.84,3.27,3.27,0,0,0-2.44.9,3.32,3.32,0,0,0-1,2.44,3.38,3.38,0,0,0,.89,2.5"/><polygon class="cls-2" points="99.74 159.82 95.56 160.24 95.81 162.72 99.87 162.31 100.07 164.28 96.01 164.69 96.42 168.72 94.36 168.93 93.31 158.48 99.54 157.85 99.74 159.82"/><polygon class="cls-2" points="110.82 155.2 111.33 157.12 108.59 157.85 110.78 166.08 108.78 166.61 106.59 158.38 103.86 159.11 103.35 157.19 110.82 155.2"/><path class="cls-2" d="M119.09,163.46a4.19,4.19,0,0,1-3,.16,3.34,3.34,0,0,1-2-2L111.37,155l1.91-.77,2.58,6.4a1.77,1.77,0,0,0,.93,1,2.52,2.52,0,0,0,2.74-1.11,1.8,1.8,0,0,0,0-1.38l-2.59-6.4,1.92-.78,2.65,6.55a3.39,3.39,0,0,1,0,2.89,4.22,4.22,0,0,1-2.32,2"/><path class="cls-2" d="M130.21,157.72l-3.64-2.13-1.37.77,1.8,3.17-1.81,1L120,151.41l3.66-2.07a3.39,3.39,0,0,1,2.66-.32,3.31,3.31,0,0,1,2.09,1.64,3.17,3.17,0,0,1,.41,1.84,3.46,3.46,0,0,1-.67,1.82l4,2.3Zm-7.42-5.64,1.52,2.7,1.86-1.05a1.33,1.33,0,0,0,.65-.89,1.62,1.62,0,0,0-.18-1.17,1.53,1.53,0,0,0-.9-.74,1.32,1.32,0,0,0-1.1.1Z"/><polygon class="cls-2" points="140.44 150.57 138.52 151.99 132.58 150.28 135.51 154.23 133.85 155.46 127.59 147.04 129.25 145.8 132.01 149.51 132.14 143.65 134.05 142.23 133.98 148.64 140.44 150.57"/><rect class="cls-2" x="137.84" y="139.56" width="2.07" height="10.5" transform="translate(-61.18 129.45) rotate(-41.81)"/><path class="cls-2" d="M148.64,142.78a5.25,5.25,0,0,1-3.81,1.83,5.66,5.66,0,0,1-5.74-5.25,5.65,5.65,0,0,1,3.76-5.44,4.91,4.91,0,0,1,2.6-.17l-.44,2a2.77,2.77,0,0,0-1.56.07,3.41,3.41,0,0,0-1.39.93,3.25,3.25,0,0,0-.95,2.47,3.75,3.75,0,0,0,3.66,3.35,3.29,3.29,0,0,0,2.37-1.17A3.36,3.36,0,0,0,148,140a2.71,2.71,0,0,0-.06-1.55l2-.62a5,5,0,0,1,.07,2.6,5.32,5.32,0,0,1-1.29,2.4"/><path class="cls-2" d="M157.32,131.21a4.65,4.65,0,0,1-2,1.86,3.7,3.7,0,0,1-2.41.27l.06-2a2.38,2.38,0,0,0,2.64-1.21,2.08,2.08,0,0,0,.4-1.25,1,1,0,0,0-1.45-.8,8.05,8.05,0,0,0-1.5,1.15,12.47,12.47,0,0,1-1,.8,5.76,5.76,0,0,1-1,.53,2.39,2.39,0,0,1-1.15.16,3,3,0,0,1-1.21-.45,2.79,2.79,0,0,1-1.39-2.06,3.65,3.65,0,0,1,.56-2.52,4.07,4.07,0,0,1,1.72-1.58,4.2,4.2,0,0,1,2.26-.36l-.06,2a2.1,2.1,0,0,0-2.21,1,1.62,1.62,0,0,0-.29,1,1,1,0,0,0,1.35.78,5.55,5.55,0,0,0,1.41-1l.58-.5c.13-.11.32-.25.57-.43a4.09,4.09,0,0,1,.62-.4c.17-.07.38-.15.63-.23a2,2,0,0,1,.68-.11,2.66,2.66,0,0,1,.7.11,3.24,3.24,0,0,1,.77.34,2.83,2.83,0,0,1,1.4,2.12,4.24,4.24,0,0,1-.73,2.79"/><polygon class="cls-2" points="153.46 115.53 155.25 116.39 154.03 118.94 161.71 122.62 160.82 124.49 153.13 120.81 151.92 123.36 150.13 122.5 153.46 115.53"/><path class="cls-2" d="M165.63,112.48l-2,0-1.4,4.08,1.58,1.21-.73,2.11-8.73-6.9.84-2.42,11.13-.08Zm-5,2.83,1-2.8-4.55,0Z"/><polygon class="cls-2" points="157.73 100.46 159.67 100.89 159.05 103.65 167.37 105.5 166.92 107.52 158.6 105.67 157.99 108.43 156.06 108 157.73 100.46"/><polygon class="cls-2" points="166.5 98.57 166.98 94.17 168.95 94.39 168.25 100.84 157.81 99.71 158.5 93.33 160.47 93.54 160 97.87 162.22 98.11 162.65 94.16 164.59 94.37 164.16 98.32 166.5 98.57"/><path class="cls-2" d="M169.25,88.52a4.6,4.6,0,0,1-.66,2.63,3.66,3.66,0,0,1-1.87,1.53l-1.06-1.75a2.36,2.36,0,0,0,1.56-2.44,2.12,2.12,0,0,0-.33-1.27,1,1,0,0,0-.8-.39,1,1,0,0,0-.86.5,7.92,7.92,0,0,0-.64,1.79,9.12,9.12,0,0,1-.4,1.19,4.9,4.9,0,0,1-.55,1,2.24,2.24,0,0,1-.88.76,3,3,0,0,1-1.25.27,2.82,2.82,0,0,1-2.29-1,3.7,3.7,0,0,1-.89-2.43,4.11,4.11,0,0,1,.59-2.25,4.2,4.2,0,0,1,1.71-1.54l1,1.73a2.1,2.1,0,0,0-1.32,2,1.62,1.62,0,0,0,.31,1,.91.91,0,0,0,.77.35.92.92,0,0,0,.79-.42,5.58,5.58,0,0,0,.64-1.6c.1-.32.17-.56.22-.73l.25-.68a4.17,4.17,0,0,1,.31-.66,4.62,4.62,0,0,1,.4-.54,2,2,0,0,1,.51-.47,3.62,3.62,0,0,1,.65-.28,2.73,2.73,0,0,1,.83-.12,2.79,2.79,0,0,1,2.33,1,4.25,4.25,0,0,1,.9,2.74"/><polygon class="cls-2" points="13.22 58.82 15.09 59.46 14.16 62.14 22.21 64.92 21.54 66.88 13.49 64.1 12.57 66.77 10.7 66.12 13.22 58.82"/><path class="cls-2" d="M14.5,53.54a.94.94,0,0,1-.05.77,1,1,0,0,1-.57.52,1,1,0,0,1-.78,0,1,1,0,0,1-.51-.58,1,1,0,0,1,0-.78,1,1,0,0,1,.59-.51A1,1,0,0,1,14,53a1,1,0,0,1,.51.58M15.76,51a1,1,0,0,1-.06.77,1,1,0,0,1-1.35.47,1,1,0,0,1-.51-.58,1,1,0,0,1,.05-.78,1,1,0,0,1,.58-.51,1,1,0,0,1,.77,0,1,1,0,0,1,.52.58m9.6,7.07a4.17,4.17,0,0,1-2.15,2.15,3.33,3.33,0,0,1-2.88-.15L14,57l.9-1.85,6.2,3a1.8,1.8,0,0,0,1.38.15,2.53,2.53,0,0,0,1.3-2.66,1.78,1.78,0,0,0-1-1l-6.2-3,.9-1.86,6.35,3.1A3.32,3.32,0,0,1,25.74,55a4.19,4.19,0,0,1-.38,3"/><path class="cls-2" d="M30.9,48.2,26.69,48l-.86,1.3,3,2L27.73,53,19,47.22l2.31-3.5a3.38,3.38,0,0,1,2.22-1.5,3.31,3.31,0,0,1,2.61.5,3.2,3.2,0,0,1,1.21,1.46,3.58,3.58,0,0,1,.23,1.92l4.59.24Zm-9.18-1.64,2.59,1.71,1.18-1.77a1.34,1.34,0,0,0,.17-1.09,1.56,1.56,0,0,0-.69-1,1.52,1.52,0,0,0-1.14-.25,1.27,1.27,0,0,0-.93.59Z"/><polygon class="cls-2" points="38.03 39.43 36.48 41.24 30.31 40.9 34.05 44.09 32.7 45.67 24.72 38.84 26.07 37.27 29.58 40.27 28.41 34.53 29.96 32.72 31.31 38.99 38.03 39.43"/><path class="cls-2" d="M37.8,25.65a4.8,4.8,0,0,1,3.76-1.08,5.55,5.55,0,0,1,4.69,5.82,4.79,4.79,0,0,1-1.86,3.44l-3.25,2.62-6.59-8.18Zm5.35,6.64a3,3,0,0,0,1.16-2.1,3.34,3.34,0,0,0-.82-2.38,3.3,3.3,0,0,0-2.15-1.3,2.9,2.9,0,0,0-2.3.68l-1.63,1.32,4.1,5.09Z"/><polygon class="cls-2" points="50.07 27.31 53.84 24.99 54.88 26.68 49.35 30.08 43.84 21.14 49.31 17.77 50.35 19.46 46.64 21.74 47.81 23.64 51.2 21.56 52.22 23.22 48.84 25.3 50.07 27.31"/><polygon class="cls-2" points="58.22 25.03 50.63 16.97 52.67 16.03 58.38 22.29 57.32 13.89 59.37 12.94 60.55 23.96 58.22 25.03"/><polygon class="cls-2" points="65.82 19.81 69.63 18.57 70.24 20.45 64.47 22.34 61.2 12.36 63.17 11.71 65.82 19.81"/><polygon class="cls-2" points="72.73 17.86 77.06 16.93 77.48 18.86 71.13 20.23 68.91 9.97 75.19 8.61 75.61 10.55 71.35 11.47 71.83 13.65 75.71 12.81 76.12 14.72 72.24 15.56 72.73 17.86"/><polygon class="cls-2" points="84.48 7.54 84.69 9.51 81.87 9.8 82.74 18.27 80.68 18.49 79.81 10.01 77 10.3 76.8 8.34 84.48 7.54"/><polygon class="cls-2" points="88.58 16.01 92.58 16.07 92.55 18.06 86.48 17.96 86.65 7.46 88.72 7.49 88.58 16.01"/><polygon class="cls-2" points="95.7 16.31 100.1 16.75 99.9 18.73 93.44 18.07 94.51 7.62 100.89 8.27 100.69 10.24 96.37 9.8 96.14 12.02 100.09 12.43 99.89 14.37 95.94 13.96 95.7 16.31"/><path class="cls-2" d="M106.68,20.15l-1.29-4-1.53-.34-.79,3.56-2-.45,2.28-10.25,4.1.91a3.39,3.39,0,0,1,2.19,1.53,3.33,3.33,0,0,1,.46,2.62,3.18,3.18,0,0,1-.93,1.65,3.47,3.47,0,0,1-1.7.9l1.41,4.37ZM104.93,11l-.67,3,2.07.46a1.32,1.32,0,0,0,1.08-.23,1.56,1.56,0,0,0,.65-1,1.5,1.5,0,0,0-.17-1.16,1.3,1.3,0,0,0-.88-.66Z"/><path class="cls-2" d="M113,11l2,.63-3.19,10-2-.63Zm1.22-.42a1.16,1.16,0,0,1-.76-1.47,1.08,1.08,0,0,1,.57-.67,1.18,1.18,0,0,1,1.57.5,1.13,1.13,0,0,1,.07.88,1.15,1.15,0,0,1-.58.68,1.07,1.07,0,0,1-.87.08"/><polygon class="cls-2" points="127.54 16.99 126.69 18.77 124.13 17.56 120.48 25.26 118.61 24.37 122.26 16.67 119.71 15.47 120.56 13.68 127.54 16.99"/><polygon class="cls-2" points="126.6 26.33 130.37 28.65 129.33 30.34 123.8 26.93 129.3 17.99 134.77 21.36 133.73 23.04 130.02 20.76 128.85 22.67 132.24 24.75 131.22 26.41 127.83 24.33 126.6 26.33"/><path class="cls-2" d="M137.92,33.24A2.8,2.8,0,0,1,136,34.39a3.7,3.7,0,0,1-2.35-.55l-.34.42a1.57,1.57,0,0,1,.34.77,1,1,0,0,1-.23.8q-1,1.24-3.45-.95l.84-1.07c.81.72,1.3,1,1.46.76s0-.45-.51-.88l.64-.81a4.29,4.29,0,0,1-1.16-2,3.62,3.62,0,0,1,.09-2.11l2,.28a2.35,2.35,0,0,0,.91,2.75,2.05,2.05,0,0,0,1.2.54,1,1,0,0,0,.95-1.36,7.74,7.74,0,0,0-1-1.62,10,10,0,0,1-.68-1.07,5.13,5.13,0,0,1-.42-1,2.28,2.28,0,0,1,0-1.16,2.91,2.91,0,0,1,.58-1.15,2.77,2.77,0,0,1,2.2-1.16,3.69,3.69,0,0,1,2.44.83,4.08,4.08,0,0,1,1.38,1.87,4.25,4.25,0,0,1,.12,2.3l-2-.28a2.12,2.12,0,0,0-.75-2.31,1.64,1.64,0,0,0-1-.39,1,1,0,0,0-.76.37,1,1,0,0,0-.17.89,5.73,5.73,0,0,0,.84,1.5l.43.63c.09.14.22.35.37.62a3.85,3.85,0,0,1,.32.66,4.81,4.81,0,0,1,.17.64,2.13,2.13,0,0,1,0,.7,2.93,2.93,0,0,1-.19.68,2.69,2.69,0,0,1-.43.72"/><polygon class="cls-2" points="142.61 42.02 140.93 40.34 141.75 34.21 138.27 37.69 136.81 36.23 144.23 28.79 145.69 30.26 142.42 33.53 148.24 32.8 149.93 34.49 143.57 35.35 142.61 42.02"/><path class="cls-2" d="M151.09,36l1.33,1.59-8,6.74L143,42.72Zm1.25.31a1.15,1.15,0,0,1-.26-.86,1.15,1.15,0,0,1,1.26-1,1.16,1.16,0,0,1,.79.41,1.14,1.14,0,0,1,.26.85,1.16,1.16,0,0,1-.41.78,1.17,1.17,0,0,1-1.64-.13"/><polygon class="cls-2" points="148.3 46.18 150.63 49.44 149.02 50.59 145.48 45.65 154.02 39.54 155.23 41.22 148.3 46.18"/><path class="cls-2" d="M153,57.62l1.34-1.49-2.07-3.79-2,.36-1.07-2,11-1.81,1.22,2.25L154,59.46ZM154.27,52l1.42,2.59,3-3.38Z"/><polygon class="cls-2" points="166.21 61.94 164.38 62.69 163.31 60.06 155.42 63.27 154.64 61.36 162.53 58.14 161.46 55.53 163.3 54.79 166.21 61.94"/><rect class="cls-2" x="156.77" y="65.21" width="10.5" height="2.07" transform="translate(-12.4 51.46) rotate(-17.39)"/><path class="cls-2" d="M89.13,178.25a89.13,89.13,0,1,1,89.12-89.12,89.22,89.22,0,0,1-89.12,89.12M89.13,1a88.13,88.13,0,1,0,88.12,88.13A88.22,88.22,0,0,0,89.13,1m0,152.28a64.16,64.16,0,1,1,64.15-64.15,64.23,64.23,0,0,1-64.15,64.15M89.13,26a63.16,63.16,0,1,0,63.15,63.16A63.23,63.23,0,0,0,89.13,26"/></g></g></svg>